<svg width="28" height="25" viewBox="0 0 28 25" fill="none" xmlns="http://www.w3.org/2000/svg">
<path fill-rule="evenodd" clip-rule="evenodd" d="M20.5931 4.85094C20.7181 5.23962 21.0765 5.50283 21.4807 5.50283H23.3333C25.9103 5.50283 28 7.61509 28 10.2198V20.283C28 22.8877 25.9103 25 23.3333 25H4.66667C2.08973 25 0 22.8877 0 20.283V10.2198C0 7.61509 2.08973 5.50283 4.66667 5.50283H6.51933C6.92347 5.50283 7.28187 5.23962 7.40693 4.85094L7.9184 3.25943C8.54373 1.31604 10.3348 0 12.3564 0H15.6436C17.6652 0 19.4563 1.31604 20.0816 3.25943L20.5931 4.85094ZM14 6.99717C10.1799 6.99717 7.07747 10.1321 7.07747 13.9934C7.07747 17.8557 10.1799 20.9906 14 20.9906C17.8201 20.9906 20.9225 17.8557 20.9225 13.9934C20.9225 10.1321 17.8201 6.99717 14 6.99717ZM14 8.88396C16.7907 8.88396 19.0559 11.1736 19.0559 13.9934C19.0559 16.8142 16.7907 19.1038 14 19.1038C11.2093 19.1038 8.94413 16.8142 8.94413 13.9934C8.94413 11.1736 11.2093 8.88396 14 8.88396Z" fill="currentColor"/>
</svg>
