<svg width="30" height="30" viewBox="0 0 30 30" fill="none" xmlns="http://www.w3.org/2000/svg">
<path d="M0.00634966 13.1987C-0.054463 13.6881 0.327202 14.1201 0.820375 14.1201H4.15774C4.55833 14.1201 4.90034 13.8308 4.96668 13.4357C5.60899 9.61055 8.61046 6.60902 12.4356 5.96677C12.8307 5.90043 13.1201 5.55841 13.1201 5.15777V1.82041C13.1201 1.32723 12.688 0.945568 12.1986 1.00638C9.1213 1.38881 6.21421 2.81173 4.01293 5.01296C1.8117 7.21424 0.38878 10.1213 0.00634966 13.1987Z" fill="currentColor"/>
<path d="M19.2269 22.3652C17.6699 23.4769 15.8443 24.0645 13.9473 24.0645C9.48367 24.0645 5.70683 20.8658 4.9668 16.4586C4.90046 16.0636 4.55844 15.7742 4.15786 15.7742H0.820436C0.327263 15.7742 -0.0544019 16.2062 0.0064107 16.6956V16.6957C0.878186 23.7102 6.87146 28.9999 13.9473 28.9999C17.0995 28.9999 20.0805 27.9768 22.5682 26.0411C22.9575 25.7381 22.9933 25.1625 22.6445 24.8137L20.2836 22.4528C20 22.1693 19.5531 22.1323 19.2269 22.3652Z" fill="currentColor"/>
<path d="M15.4588 5.96677C19.8659 6.7068 23.0647 10.4836 23.0647 14.9473C23.0647 16.8442 22.4771 18.6698 21.3654 20.2268C21.1325 20.5531 21.1695 21 21.453 21.2835L23.814 23.6445C24.1628 23.9933 24.7384 23.9575 25.0414 23.5682L25.0414 23.5681C26.977 21.0806 28.0001 18.0995 28.0001 14.9473C28.0001 7.87143 22.7104 1.87816 15.6958 1.00638H15.6957C15.2063 0.945568 14.7743 1.32723 14.7743 1.82041V5.15777C14.7743 5.55841 15.0637 5.90043 15.4588 5.96677Z" fill="currentColor"/>
<path d="M14.4935 9.31042H13.3991C12.9461 9.31042 12.5788 9.67771 12.5788 10.1307V19.701H15.3138V10.1307C15.3138 9.67771 14.9466 9.31042 14.4935 9.31042Z" fill="currentColor"/>
<path d="M16.9545 19.7009H18.8692C19.3222 19.7009 19.6895 19.3336 19.6895 18.8806V12.3181C19.6895 11.8651 19.3222 11.4978 18.8692 11.4978H16.9545V19.7009Z" fill="currentColor"/>
<path d="M10.9382 13.6853H9.02554C8.57251 13.6853 8.20523 14.0526 8.20523 14.5056V18.8806C8.20523 19.3336 8.57251 19.7009 9.02554 19.7009H10.9382V13.6853Z" fill="currentColor"/>
</svg>
