<svg width="15" height="15" viewBox="0 0 15 15" fill="none" xmlns="http://www.w3.org/2000/svg">
<g clip-path="url(#clip0_130_189)">
<path d="M5.85996 6.95952C5.81624 7.00323 5.78683 7.05885 5.77436 7.11882L5.3325 9.3289C5.3119 9.43133 5.3444 9.53696 5.4181 9.61134C5.4775 9.67074 5.55749 9.70255 5.63943 9.70255C5.65934 9.70255 5.68006 9.70072 5.70066 9.69637L7.91005 9.25452C7.97128 9.24193 8.0269 9.21263 8.07004 9.1688L13.015 4.22381L10.8056 2.01453L5.85996 6.95952Z" fill="#9E9E9E"/>
<path d="M14.5425 0.486345C13.9332 -0.123053 12.9419 -0.123053 12.3331 0.486345L11.4681 1.35129L13.6775 3.56069L14.5425 2.69563C14.8375 2.40129 15 2.00875 15 1.59127C15 1.17379 14.8375 0.78126 14.5425 0.486345Z" fill="#9E9E9E"/>
</g>
<path d="M13.1986 7.21675C13.6107 7.16468 13.9913 7.45697 13.9988 7.87226C14.02 9.03311 13.7521 10.1853 13.2139 11.2229C12.5599 12.4839 11.5377 13.5161 10.2831 14.1823C9.02851 14.8486 7.60091 15.1174 6.18994 14.953C4.77896 14.7886 3.45139 14.1988 2.38357 13.262C1.31575 12.3252 0.558212 11.0857 0.211591 9.70807C-0.13503 8.33049 -0.0543315 6.88005 0.442967 5.54943C0.940265 4.2188 1.83063 3.07096 2.99578 2.25838C3.95455 1.58973 5.06205 1.17413 6.21578 1.04406C6.62853 0.997529 6.96786 1.3368 6.96987 1.75215C6.97187 2.16751 6.6352 2.50057 6.224 2.55921C5.37605 2.68016 4.56444 2.99821 3.85621 3.49214C2.94142 4.13011 2.24238 5.0313 1.85194 6.076C1.4615 7.12071 1.39814 8.25947 1.67028 9.34104C1.94242 10.4226 2.53718 11.3958 3.37555 12.1313C4.21392 12.8668 5.25622 13.3299 6.364 13.4589C7.47179 13.588 8.59262 13.377 9.57763 12.8539C10.5626 12.3308 11.3652 11.5204 11.8787 10.5304C12.2762 9.76388 12.4859 8.91779 12.4955 8.06131C12.5001 7.64597 12.7865 7.26882 13.1986 7.21675Z" fill="#9E9E9E"/>
<defs>
<clipPath id="clip0_130_189">
<rect width="15" height="15" fill="white"/>
</clipPath>
</defs>
</svg>
