<svg width="23" height="23" viewBox="0 0 23 23" fill="none" xmlns="http://www.w3.org/2000/svg">
<path fill-rule="evenodd" clip-rule="evenodd" d="M19.6257 7.26247L14.4641 2.99477C12.7254 1.55724 10.2746 1.55724 8.53591 2.99477L3.37427 7.26247C2.44432 8.03136 1.91667 9.19713 1.91667 10.4135V17.0687C1.91667 19.2299 3.57857 21.0833 5.75001 21.0833H7.66667C8.72522 21.0833 9.58334 20.2252 9.58334 19.1666V16.0499C9.58334 14.8353 10.4958 13.952 11.5 13.952C12.5042 13.952 13.4167 14.8353 13.4167 16.0499V19.1666C13.4167 20.2252 14.2748 21.0833 15.3333 21.0833H17.25C19.4215 21.0833 21.0833 19.2299 21.0833 17.0687V10.4135C21.0833 9.19714 20.5557 8.03136 19.6257 7.26247Z" fill="currentColor"/>
</svg>
