<svg width="25" height="25" viewBox="0 0 25 25" fill="none" xmlns="http://www.w3.org/2000/svg">
<path d="M8.95459 6.01055e-07C10.5235 -2.23447e-05 11.7883 -4.52358e-05 12.7829 0.133683C13.8155 0.272527 14.6851 0.569549 15.3756 1.26012C15.9779 1.86237 16.2822 2.60246 16.4419 3.47209C16.5972 4.31714 16.6269 5.35129 16.6338 6.59212C16.6364 7.06733 16.2533 7.45471 15.7781 7.45736C15.3029 7.46001 14.9155 7.07691 14.9129 6.6017C14.9059 5.34714 14.8733 4.4579 14.7493 3.78301C14.6299 3.13272 14.4381 2.75631 14.1588 2.47701C13.8412 2.15948 13.3954 1.95245 12.5536 1.83927C11.687 1.72276 10.5384 1.72093 8.8916 1.72093H7.74431C6.0975 1.72093 4.94895 1.72276 4.08229 1.83927C3.24041 1.95245 2.79469 2.15948 2.47712 2.47701C2.15955 2.79453 1.95258 3.24034 1.83934 4.08219C1.72289 4.94879 1.72105 6.09736 1.72105 7.74419V16.9225C1.72105 18.5693 1.72289 19.7179 1.83934 20.5845C1.95258 21.4264 2.15955 21.8721 2.47712 22.1897C2.79469 22.5073 3.24041 22.7142 4.08229 22.8275C4.94895 22.9439 6.0975 22.9458 7.74431 22.9458H8.8916C10.5384 22.9458 11.687 22.9439 12.5536 22.8275C13.3954 22.7142 13.8412 22.5073 14.1588 22.1897C14.4381 21.9103 14.6299 21.534 14.7493 20.8837C14.8733 20.2088 14.9059 19.3195 14.9129 18.065C14.9155 17.5898 15.3029 17.2067 15.7781 17.2093C16.2533 17.212 16.6364 17.5994 16.6338 18.0746C16.6269 19.3154 16.5972 20.3496 16.4419 21.1945C16.2822 22.0642 15.9779 22.8043 15.3756 23.4066C14.6851 24.0972 13.8155 24.3942 12.7829 24.533C11.7883 24.6667 10.5235 24.6667 8.95459 24.6667H7.68133C6.1123 24.6667 4.84764 24.6667 3.85294 24.533C2.82027 24.3942 1.95086 24.0972 1.26019 23.4066C0.569637 22.716 0.272604 21.8465 0.133783 20.8139C9.53674e-06 19.8192 0.00012207 18.5545 0.00012207 16.9855V7.68124C0.00012207 6.11222 9.53674e-06 4.84754 0.133783 3.85288C0.272604 2.82019 0.569637 1.9507 1.26019 1.26012C1.95086 0.569549 2.82027 0.272527 3.85294 0.133683C4.84764 -4.52358e-05 6.1123 -2.23447e-05 7.68133 6.01055e-07H8.95459Z" fill="white"/>
<path d="M8.89178 11.4728C8.41658 11.4728 8.03132 11.858 8.03132 12.3332C8.03132 12.8084 8.41658 13.1937 8.89178 13.1937H21.4805L19.231 15.1218C18.8702 15.431 18.8284 15.9743 19.1377 16.3351C19.447 16.6959 19.9902 16.7377 20.351 16.4284L24.3665 12.9865C24.5572 12.8231 24.667 12.5844 24.667 12.3332C24.667 12.0821 24.5572 11.8433 24.3665 11.68L20.351 8.23805C19.9902 7.92878 19.447 7.97056 19.1377 8.33139C18.8284 8.6922 18.8702 9.23541 19.231 9.54468L21.4805 11.4728H8.89178Z" fill="white"/>
</svg>
