<svg width="24" height="24" viewBox="0 0 24 24" fill="none" xmlns="http://www.w3.org/2000/svg">
<path fill-rule="evenodd" clip-rule="evenodd" d="M2.94576 4.61092L9.42951 11.0975C10.8436 12.5089 13.1552 12.5101 14.5705 11.0975L21.0543 4.61092C21.1196 4.54562 21.1101 4.43809 21.0343 4.38526C20.373 3.92406 19.5684 3.65063 18.7017 3.65063H5.29842C4.43165 3.65063 3.62704 3.9241 2.96573 4.38526C2.88998 4.43809 2.88046 4.54562 2.94576 4.61092ZM1.21307 7.73593C1.21307 7.05437 1.38206 6.4104 1.67971 5.84438C1.72626 5.75584 1.84425 5.73793 1.91498 5.80867L8.31665 12.2103C10.3439 14.2405 13.655 14.2417 15.6834 12.2103L22.0851 5.80867C22.1558 5.73793 22.2738 5.75584 22.3204 5.84438C22.618 6.4104 22.787 7.05442 22.787 7.73593V16.2642C22.787 18.5186 20.9532 20.3496 18.7017 20.3496H5.29842C3.04692 20.3496 1.21307 18.5186 1.21307 16.2642V7.73593Z" fill="#4E4E4E"/>
</svg>
