<svg width="25" height="22" viewBox="0 0 25 22" fill="none" xmlns="http://www.w3.org/2000/svg">
<path d="M10.5469 22H14.4531C14.9925 22 15.4297 21.6153 15.4297 21.1406C15.4297 20.666 14.9925 20.2812 14.4531 20.2812H10.5469C10.0075 20.2812 9.57031 20.666 9.57031 21.1406C9.57031 21.6153 10.0075 22 10.5469 22Z" fill="white"/>
<path d="M12.5 0C11.9606 0 11.5234 0.384742 11.5234 0.859375V1.78041C8.21509 2.19867 5.66406 4.70912 5.66406 7.73438V13.0176C5.66406 13.3205 5.50903 13.596 5.27837 13.7032C4.31152 14.1525 3.71094 15.0266 3.71094 15.9844C3.71094 17.406 5.0252 18.5625 6.64062 18.5625H18.3594C19.9748 18.5625 21.2891 17.406 21.2891 15.9844C21.2891 15.0266 20.6885 14.1525 19.7216 13.7032C19.4909 13.596 19.3359 13.3205 19.3359 13.0176V7.73438C19.3359 4.70912 16.7849 2.19867 13.4766 1.78041V0.859375C13.4766 0.384742 13.0394 0 12.5 0ZM17.3828 7.73438V13.0176C17.3828 13.9691 17.9295 14.8141 18.8097 15.2231C19.1343 15.3739 19.3359 15.6656 19.3359 15.9844C19.3359 16.4582 18.8979 16.8438 18.3594 16.8438H6.64062C6.10215 16.8438 5.66406 16.4582 5.66406 15.9844C5.66406 15.6656 5.86572 15.3739 6.19033 15.2231C7.07046 14.8141 7.61719 13.9691 7.61719 13.0176V7.73438C7.61719 5.36508 9.80762 3.4375 12.5 3.4375C15.1924 3.4375 17.3828 5.36508 17.3828 7.73438Z" fill="white"/>
</svg>
