<?xml version="1.0" encoding="iso-8859-1"?>
<!-- Uploaded to: SVG Repo, www.svgrepo.com, Generator: SVG Repo Mixer Tools -->
<!DOCTYPE svg PUBLIC "-//W3C//DTD SVG 1.1//EN" "http://www.w3.org/Graphics/SVG/1.1/DTD/svg11.dtd">
<svg fill="#fff" height="800px" width="800px" version="1.1" id="Capa_1" xmlns="http://www.w3.org/2000/svg" xmlns:xlink="http://www.w3.org/1999/xlink" 
	 viewBox="0 0 466.95 466.95" xml:space="preserve">
<g>
	<path d="M358.089,308.425c0-14.524-11.816-26.341-26.341-26.341c-5.141,0-9.939,1.486-13.998,4.043
		c-4.281-8.768-13.287-14.823-23.683-14.823c-5.793,0-11.151,1.884-15.505,5.065c-4.688-7.302-12.874-12.155-22.177-12.155
		c-4.058,0-7.904,0.924-11.341,2.57v-55.33c5.617-6.126,8.78-14.168,8.78-22.566c0-18.435-14.993-33.433-33.422-33.433
		c-18.435,0-33.433,14.998-33.433,33.433c0,6.467,1.904,12.788,5.394,18.171v102.226c-8.007-7.202-18.589-11.594-30.181-11.594
		c-4.142,0-7.5,3.358-7.5,7.5v88.611c0,20.055,12.006,37.891,30.586,45.439c0.384,0.156,0.779,0.279,1.184,0.37
		c9.121,2.042,15.491,9.998,15.491,19.345v0.492c0,4.142,3.358,7.5,7.5,7.5s7.5-3.358,7.5-7.5v-0.492
		c0-16.19-10.878-30.002-26.542-33.825c-12.606-5.357-20.718-17.593-20.718-31.329v-80.168
		c13.026,3.343,22.681,15.184,22.681,29.238v8.243v16.486c0,4.142,3.358,7.5,7.5,7.5s7.5-3.358,7.5-7.5v-16.486v-8.243V209.81
		c0-6.253,5.087-11.34,11.341-11.34c6.253,0,11.34,5.087,11.34,11.34v109.511c0,4.142,3.358,7.5,7.5,7.5c4.143,0,7.5-3.358,7.5-7.5
		v-28.767c0-6.253,5.088-11.34,11.341-11.34s11.341,5.087,11.341,11.34v35.965c0,4.142,3.357,7.5,7.5,7.5s7.5-3.358,7.5-7.5v-28.875
		c0-6.253,5.088-11.341,11.341-11.341s11.34,5.087,11.34,11.341v10.78v24.546c0,4.142,3.357,7.5,7.5,7.5s7.5-3.358,7.5-7.5v-24.546
		c0-6.253,5.088-11.341,11.341-11.341s11.341,5.087,11.341,11.381l0.399,75.157c0.121,25.141-4.585,49.708-13.986,73.021
		c-1.549,3.842,0.31,8.212,4.151,9.761c0.919,0.371,1.868,0.546,2.802,0.546c2.969,0,5.78-1.775,6.959-4.697
		c10.133-25.127,15.204-51.607,15.074-78.708L358.089,308.425z M238.466,192.423c-4.831-5.484-11.897-8.953-19.761-8.953
		c-6.338,0-12.16,2.251-16.71,5.995c-0.006-0.193-0.024-0.383-0.024-0.577c0-10.164,8.269-18.433,18.433-18.433
		c10.158,0,18.422,8.269,18.422,18.433C238.826,190.085,238.693,191.266,238.466,192.423z"/>
	<path d="M175.313,188.885c0-18.432-14.995-33.427-33.427-33.427s-33.427,14.995-33.427,33.427s14.995,33.427,33.427,33.427
		S175.313,207.317,175.313,188.885z M141.886,207.312c-10.161,0-18.427-8.266-18.427-18.427s8.266-18.427,18.427-18.427
		s18.427,8.266,18.427,18.427S152.046,207.312,141.886,207.312z"/>
	<path d="M141.886,144.583c18.432,0,33.427-14.995,33.427-33.427s-14.995-33.427-33.427-33.427s-33.427,14.995-33.427,33.427
		S123.454,144.583,141.886,144.583z M141.886,92.729c10.161,0,18.427,8.266,18.427,18.427s-8.266,18.427-18.427,18.427
		s-18.427-8.266-18.427-18.427S131.725,92.729,141.886,92.729z"/>
	<path d="M141.886,66.854c18.432,0,33.427-14.995,33.427-33.427S160.317,0,141.886,0s-33.427,14.995-33.427,33.427
		S123.454,66.854,141.886,66.854z M141.886,15c10.161,0,18.427,8.266,18.427,18.427s-8.266,18.427-18.427,18.427
		s-18.427-8.266-18.427-18.427S131.725,15,141.886,15z"/>
	<path d="M220.401,144.583c18.432,0,33.427-14.995,33.427-33.427s-14.995-33.427-33.427-33.427
		c-18.432,0-33.427,14.995-33.427,33.427S201.97,144.583,220.401,144.583z M220.401,92.729c10.161,0,18.427,8.266,18.427,18.427
		s-8.267,18.427-18.427,18.427s-18.427-8.266-18.427-18.427S210.241,92.729,220.401,92.729z"/>
	<path d="M220.401,66.854c18.432,0,33.427-14.995,33.427-33.427S238.833,0,220.401,0c-18.432,0-33.427,14.995-33.427,33.427
		S201.97,66.854,220.401,66.854z M220.401,15c10.161,0,18.427,8.266,18.427,18.427s-8.267,18.427-18.427,18.427
		s-18.427-8.266-18.427-18.427S210.241,15,220.401,15z"/>
	<path d="M298.917,222.312c18.432,0,33.427-14.995,33.427-33.427s-14.995-33.427-33.427-33.427s-33.427,14.995-33.427,33.427
		S280.486,222.312,298.917,222.312z M298.917,170.458c10.16,0,18.427,8.266,18.427,18.427s-8.267,18.427-18.427,18.427
		s-18.427-8.266-18.427-18.427S288.757,170.458,298.917,170.458z"/>
	<path d="M298.917,144.583c18.432,0,33.427-14.995,33.427-33.427s-14.995-33.427-33.427-33.427s-33.427,14.995-33.427,33.427
		S280.486,144.583,298.917,144.583z M298.917,92.729c10.16,0,18.427,8.266,18.427,18.427s-8.267,18.427-18.427,18.427
		s-18.427-8.266-18.427-18.427S288.757,92.729,298.917,92.729z"/>
	<path d="M298.917,66.854c18.432,0,33.427-14.995,33.427-33.427S317.349,0,298.917,0s-33.427,14.995-33.427,33.427
		S280.486,66.854,298.917,66.854z M298.917,15c10.16,0,18.427,8.266,18.427,18.427s-8.267,18.427-18.427,18.427
		s-18.427-8.266-18.427-18.427S288.757,15,298.917,15z"/>
</g>
</svg>