<svg width="22" height="26" viewBox="0 0 22 26" fill="none" xmlns="http://www.w3.org/2000/svg">
<path d="M10.6819 12.5243C12.4025 12.5243 13.8924 11.9072 15.1098 10.6896C16.3272 9.47226 16.9443 7.98275 16.9443 6.26194C16.9443 4.54173 16.3272 3.05202 15.1096 1.83427C13.892 0.617109 12.4023 0 10.6819 0C8.96111 0 7.47159 0.617109 6.25423 1.83447C5.03687 3.05182 4.41956 4.54153 4.41956 6.26194C4.41956 7.98275 5.03687 9.47246 6.25443 10.6898C7.47199 11.907 8.9617 12.5243 10.6819 12.5243Z" fill="currentColor" fill-opacity="0.5"/>
<path d="M21.6394 19.9926C21.6043 19.486 21.5332 18.9334 21.4287 18.3498C21.3232 17.7618 21.1873 17.206 21.0246 16.698C20.8566 16.1729 20.6281 15.6544 20.3456 15.1575C20.0525 14.6418 19.7081 14.1927 19.3217 13.8231C18.9176 13.4365 18.4229 13.1257 17.8508 12.899C17.2807 12.6734 16.6489 12.5592 15.9731 12.5592C15.7077 12.5592 15.451 12.6681 14.9553 12.9908C14.6502 13.1898 14.2933 13.4199 13.895 13.6744C13.5544 13.8914 13.093 14.0947 12.5231 14.2788C11.9671 14.4587 11.4026 14.5499 10.8454 14.5499C10.2882 14.5499 9.72382 14.4587 9.16721 14.2788C8.59791 14.0949 8.13651 13.8916 7.79632 13.6746C7.40177 13.4224 7.04471 13.1923 6.73507 12.9906C6.23995 12.6679 5.98307 12.559 5.71765 12.559C5.04163 12.559 4.41004 12.6734 3.84014 12.8992C3.26845 13.1255 2.77353 13.4363 2.36907 13.8233C1.98285 14.1931 1.63829 14.642 1.34551 15.1575C1.06323 15.6544 0.834717 16.1727 0.666504 16.6982C0.504044 17.2062 0.368164 17.7618 0.262634 18.3498C0.158096 18.9326 0.087082 19.4854 0.0519715 19.9932C0.0174561 20.4907 0 21.0071 0 21.5286C0 22.8858 0.431442 23.9845 1.28223 24.7948C2.1225 25.5944 3.23433 26.0001 4.58638 26.0001H17.1056C18.4576 26.0001 19.569 25.5946 20.4095 24.7948C21.2605 23.9851 21.6919 22.8862 21.6919 21.5284C21.6917 21.0045 21.6741 20.4878 21.6394 19.9926Z" fill="currentColor" fill-opacity="0.5"/>
</svg>
