<svg width="30" height="30" viewBox="0 0 30 30" fill="none" xmlns="http://www.w3.org/2000/svg">
<path d="M18.8887 11.9364C18.7077 6.79225 11.2961 6.79439 11.1162 11.9365C11.2832 17.0742 18.7228 17.0721 18.8887 11.9364Z" fill="currentColor"/>
<path d="M3.6654 13.4374C4.08767 13.7674 4.58268 13.9918 5.10921 14.0918C5.63574 14.1918 6.17854 14.1645 6.6924 14.0123C7.20627 13.86 7.67632 13.5872 8.0634 13.2166C8.45049 12.8459 8.74341 12.3881 8.91776 11.8813C9.09211 11.3745 9.14285 10.8334 9.06576 10.3031C8.98866 9.77269 8.78595 9.26842 8.47452 8.83225C8.16309 8.39608 7.75195 8.04064 7.27535 7.79553C6.79875 7.55041 6.27047 7.42272 5.73453 7.4231C5.03888 7.43284 4.36319 7.65703 3.79969 8.06507C3.2362 8.4731 2.81235 9.0451 2.58602 9.70297C2.35969 10.3608 2.3419 11.0725 2.53508 11.7409C2.72826 12.4093 3.12299 13.0017 3.6654 13.4374Z" fill="currentColor"/>
<path d="M7.23002 19.8161C7.2402 18.2349 8.32562 16.8777 9.3956 15.8494C9.68565 15.5831 9.99567 15.3394 10.3229 15.1205C9.90088 14.6506 9.40694 14.2508 8.85954 13.9358C8.02886 14.7632 6.90421 15.2277 5.73181 15.2277C4.55941 15.2277 3.43476 14.7631 2.60409 13.9358C1.11066 14.8353 -0.771994 16.8249 0.331286 18.6743C0.537559 19.0235 0.831636 19.3126 1.18428 19.513C1.53693 19.7133 1.93586 19.8178 2.34142 19.8161H7.23002Z" fill="currentColor"/>
<path d="M20.9042 10.7893C21.0512 15.2365 27.4907 15.2347 27.6367 10.7893C27.4768 6.33491 21.0638 6.33518 20.9042 10.7893Z" fill="currentColor"/>
<path d="M19.0281 15.9781C18.8129 15.8326 18.5891 15.7001 18.358 15.5815C18.2023 15.7257 18.0376 15.86 17.8649 15.9835C16.9381 16.6358 15.8161 16.9516 14.685 16.8785C13.554 16.8054 12.482 16.3477 11.6469 15.5814C10.0879 16.4356 8.45259 17.9387 8.30196 19.816C8.29845 20.5304 8.57886 21.217 9.08151 21.7246C9.58416 22.2323 10.2679 22.5195 10.9823 22.523L19.0227 22.5231C19.4853 22.5175 19.9388 22.3931 20.3396 22.1621C20.7405 21.931 21.0753 21.6009 21.312 21.2033C21.5487 20.8058 21.6793 20.3541 21.6915 19.8916C21.7036 19.4291 21.5968 18.9712 21.3813 18.5618C20.8244 17.5179 20.0155 16.6298 19.0281 15.9781Z" fill="currentColor"/>
<path d="M29.7272 16.348C29.1874 15.3447 28.3827 14.5086 27.4009 13.9305C26.5707 14.7602 25.4453 15.2268 24.2716 15.2278C23.0979 15.2288 21.9717 14.7642 21.1401 13.9359C20.5948 14.254 20.1013 14.6535 19.6766 15.1205C20.004 15.3394 20.3141 15.5831 20.604 15.8495C21.3623 16.5298 21.9812 17.3508 22.4265 18.267C22.6531 18.7522 22.7719 19.2807 22.7749 19.8162H27.6635C28.0685 19.8112 28.4655 19.7023 28.8163 19.4999C29.1672 19.2976 29.4602 19.0085 29.6673 18.6604C29.8744 18.3124 29.9887 17.917 29.9992 17.5121C30.0097 17.1072 29.9161 16.7064 29.7272 16.348Z" fill="currentColor"/>
<path d="M27.944 21.4897C27.8824 21.4556 27.8146 21.434 27.7447 21.4261C27.6747 21.4182 27.6039 21.4242 27.5363 21.4437C27.4686 21.4632 27.4055 21.4958 27.3504 21.5397C27.2954 21.5836 27.2496 21.638 27.2155 21.6996C22.0329 31.2576 7.9795 31.2552 2.79885 21.6994C2.76481 21.6378 2.71896 21.5835 2.66393 21.5395C2.60889 21.4956 2.54575 21.463 2.47809 21.4435C2.41044 21.424 2.33961 21.418 2.26965 21.4258C2.19968 21.4337 2.13195 21.4553 2.07032 21.4893C2.00869 21.5234 1.95436 21.5692 1.91045 21.6242C1.86654 21.6793 1.8339 21.7424 1.81439 21.8101C1.79488 21.8777 1.78888 21.9486 1.79675 22.0185C1.80461 22.0885 1.82618 22.1562 1.86022 22.2178C7.44061 32.5099 22.5758 32.5075 28.1541 22.2177C28.1882 22.1561 28.2097 22.0884 28.2176 22.0184C28.2254 21.9485 28.2194 21.8777 28.1999 21.8101C28.1804 21.7425 28.1477 21.6794 28.1038 21.6244C28.0599 21.5695 28.0056 21.5237 27.944 21.4897Z" fill="currentColor"/>
<path d="M4.43634 5.90348C9.76137 -0.542138 20.2538 -0.541458 25.578 5.90363C25.6714 6.00838 25.802 6.07239 25.942 6.08192C26.0819 6.09146 26.22 6.04576 26.3267 5.95463C26.4333 5.8635 26.5 5.73419 26.5124 5.59446C26.5249 5.45473 26.482 5.3157 26.3931 5.20719C20.6578 -1.73602 9.35596 -1.73551 3.62127 5.2074C3.53209 5.31587 3.48904 5.455 3.50137 5.59489C3.5137 5.73477 3.58043 5.86422 3.68722 5.95542C3.794 6.04661 3.9323 6.09226 4.07239 6.08255C4.21248 6.07284 4.34316 6.00854 4.43634 5.90348Z" fill="currentColor"/>
<path d="M21.6967 6.46124C21.8084 6.45921 21.9167 6.42254 22.0067 6.3563C22.0967 6.29006 22.1639 6.19752 22.199 6.09145C22.2341 5.98538 22.2355 5.87102 22.2028 5.76416C22.1702 5.6573 22.1051 5.56321 22.0167 5.49489C19.9864 3.99746 17.53 3.18956 15.0072 3.18958C12.4844 3.18959 10.0279 3.9975 7.99767 5.49495C7.88664 5.58083 7.81372 5.70684 7.79457 5.8459C7.77543 5.98496 7.8116 6.12598 7.8953 6.23867C7.979 6.35135 8.10357 6.42671 8.24223 6.44855C8.38089 6.4704 8.52259 6.43698 8.63688 6.35549C10.4822 4.9949 12.7146 4.26087 15.0072 4.26089C17.2999 4.2609 19.5323 4.99496 21.3776 6.35557C21.4698 6.42428 21.5817 6.46135 21.6967 6.46124Z" fill="currentColor"/>
<path d="M6.60935 21.6258C6.51995 21.5176 6.39174 21.4488 6.2522 21.4341C6.11266 21.4194 5.97291 21.4599 5.86292 21.5471C5.75293 21.6342 5.68146 21.7609 5.66384 21.9001C5.64622 22.0393 5.68385 22.1799 5.76866 22.2917C10.2914 28.2209 19.7236 28.2204 24.2458 22.2915C24.3307 22.1797 24.3684 22.0391 24.3508 21.8998C24.3332 21.7606 24.2617 21.6338 24.1516 21.5466C24.0416 21.4595 23.9017 21.419 23.7622 21.4338C23.6226 21.4486 23.4943 21.5175 23.405 21.6258C19.2933 27.017 10.7205 27.0163 6.60935 21.6258Z" fill="currentColor"/>
</svg>
